<?xml version="1.0" encoding="UTF-8" standalone="no"?>
<svg width="150px" height="30px" viewBox="0 0 150 30" version="1.1" xmlns="http://www.w3.org/2000/svg" xmlns:xlink="http://www.w3.org/1999/xlink">
    <!-- Generator: Sketch 41.2 (35397) - http://www.bohemiancoding.com/sketch -->
    <title>zy-ci</title>
    <desc>Created with Sketch.</desc>
    <defs>
        <polygon id="path-1" points="0.10933525 8.05423729 9.88874499 8.05423729 9.88874499 0.206111768 0.10933525 0.206111768 0.10933525 8.05423729"></polygon>
    </defs>
    <g id="Parts" stroke="none" stroke-width="1" fill="none" fill-rule="evenodd">
        <g id="Group-2">
            <polygon id="Fill-1" fill="#26DD56" points="9.78784615 3.07692308 3.14092308 3.07692308 3.17810256 9.61205128 20.3060513 26.6666667 26.9229744 26.6666667 26.9229744 20.0197436"></polygon>
            <polygon id="Fill-2" fill="#000066" points="20 30 30 30 30 0 20 0"></polygon>
            <polygon id="Fill-3" fill="#000066" points="0 30 10 30 10 0 0 0"></polygon>
        </g>
        <path d="M56.0485073,14.0729122 L56.0485073,23.9193512 L54.8798244,23.9193512 L54.8798244,12.9108146 C55.269239,13.2984732 55.6590927,13.6856927 56.0485073,14.0729122" id="Fill-27"></path>
        <g id="Group" transform="translate(51.000000, 6.000000)">
            <polygon id="Fill-4" fill="#303030" points="29.2020225 4.91451196 27.5935073 3.27720058 26.5133641 4.37564513 29.2140995 7.09989501 35.0367583 1.17466111 22.9932748 1.17466111 22.9932748 2.72874538 31.3498544 2.72874538"></polygon>
            <polygon id="Fill-5" fill="#303030" points="19.8448951 7.16636165 19.8448951 8.72006237 28.4294295 8.72006237 28.4294295 14.1179355 23.8918468 14.1179355 23.8918468 15.6716362 29.9564244 15.6716362 29.9564244 8.72006237 33.2576168 8.72006237 30.5191405 11.5060614 31.5992837 12.6048895 36.9441432 7.16636165"></polygon>
            <polygon id="Fill-6" fill="#303030" points="41.7322497 10.7717834 43.1346998 11.3873573 44.4778968 8.21935729 44.4778968 15.9192081 46.0052691 15.9192081 46.0052691 4.61911322 47.5567955 0.960955351 46.1547228 0.345381501"></polygon>
            <polygon id="Fill-7" fill="#303030" points="50.3978137 4.49112755 51.9248086 4.49112755 51.9248086 3.33016678 54.4443879 3.33016678 54.4443879 4.49112755 55.9713828 4.49112755 55.9713828 3.33016678 58.0784546 3.33016678 58.0784546 1.77608252 55.9713828 1.77608252 55.9713828 0.204355642 54.4443879 0.204355642 54.4443879 1.77608252 51.9248086 1.77608252 51.9248086 0.204355642 50.3978137 0.204355642 50.3978137 1.77608252 48.1865771 1.77608252 48.1865771 3.33016678 50.3978137 3.33016678"></polygon>
            <g id="Group-25" transform="translate(0.000000, 0.166071)">
                <path d="M47.7550105,4.92709191 C47.7550105,4.92709191 47.7535008,5.47247884 47.7535008,5.47401298 C47.7395367,7.30577666 47.6900962,8.97415438 47.6066889,10.4331219 C47.3968498,14.1227297 47.0428406,14.7762735 46.9005576,15.0263384 L48.1558183,15.7911074 C48.7396693,14.7643839 48.9521503,12.4324905 49.060844,10.5217185 C49.1302871,9.30629579 49.176331,7.95011564 49.1985981,6.47887496 L49.2563416,6.48079264 L58.7768491,6.48079264 L58.7768491,4.92709191 L47.7550105,4.92709191 Z" id="Fill-8" fill="#303030"></path>
                <polygon id="Fill-10" fill="#303030" points="71.4175816 5.30376174 71.4175816 3.75006102 69.7743448 3.75006102 69.7743448 0.061220339 68.2473499 0.061220339 68.2473499 3.75006102 65.9315712 3.75006102 65.9315712 5.30376174 68.2473499 5.30376174 68.2473499 5.32562324 65.2341203 12.3980107 66.6290222 13.0316107 68.2473499 8.65509153 68.2473499 15.7815574 69.7743448 15.7815574 69.7743448 8.58835642 70.481231 10.5052649 71.8659429 9.85018692 69.7886864 5.30376174"></polygon>
                <g id="Group-14" transform="translate(71.707620, 7.847942)">
                    <mask id="mask-2" fill="white">
                        <use xlink:href="#path-1"></use>
                    </mask>
                    <g id="Clip-13"></g>
                    <path d="M6.61510343,3.3744953 C7.70053035,1.87180475 8.07303257,0.684763584 8.08812891,0.634904019 L6.53207355,0.206111768 C6.52905428,0.216467215 6.19617996,1.25392969 5.2371849,2.56600329 C5.15943874,2.67185898 5.08018295,2.7769476 4.99904012,2.88088562 C4.91789728,2.7769476 4.83864149,2.67185898 4.76051793,2.56600329 C3.80190027,1.25392969 3.46902595,0.216467215 3.46562928,0.206111768 L2.6877903,0.421658499 L1.90957392,0.634904019 C1.92467026,0.684763584 2.29717248,1.87180475 3.3825994,3.3744953 C3.54262061,3.59579506 3.72453152,3.83205269 3.92870954,4.07828223 C2.85724673,5.12955196 1.57858664,6.00094373 0.10933525,6.68018441 L0.821882548,8.0543907 C2.61193119,7.22748901 3.97739524,6.20651855 4.99904012,5.22658634 C6.01993018,6.20651855 7.38614905,7.22748901 9.17544287,8.0543907 L9.88874499,6.68018441 C8.41873878,6.00094373 7.1404561,5.12955196 6.06899329,4.07828223 C6.2731713,3.83205269 6.45508221,3.59579506 6.61510343,3.3744953" id="Fill-12" fill="#303030" mask="url(#mask-2)"></path>
                </g>
                <polygon id="Fill-15" fill="#303030" points="80.9292577 1.91258266 77.470686 1.91258266 77.470686 0.107666441 75.9436911 0.107666441 75.9436911 1.91258266 72.4526622 1.91258266 72.4526622 3.41987564 80.9292577 3.41987564"></polygon>
                <polygon id="Fill-17" fill="#303030" points="75.8619821 4.76731119 74.6006828 3.87252378 72.0826131 7.54717366 73.343535 8.44196107"></polygon>
                <polygon id="Fill-19" fill="#303030" points="77.5197491 4.76731119 80.0378188 8.44196107 81.299118 7.54717366 78.7810484 3.87252378"></polygon>
                <path d="M54.771035,12.2194751 L56.6614743,12.2194751 L56.6614743,11.2295709 L54.771035,11.2295709 L54.771035,12.2194751 Z M54.771035,9.67587022 L56.6614743,9.67587022 L56.6614743,8.76037191 L54.771035,8.76037191 L54.771035,9.67587022 Z M51.4694652,9.67587022 L53.3198992,9.67587022 L53.3198992,8.76037191 L51.4694652,8.76037191 L51.4694652,9.67587022 Z M51.4694652,12.2198586 L53.3198992,12.2198586 L53.3198992,11.2299545 L51.4694652,11.2299545 L51.4694652,12.2198586 Z M58.1118553,14.7159051 L58.1118553,7.20628765 L50.0187068,7.20628765 L50.0187068,15.7756126 L51.4694652,15.7756126 L51.4694652,13.7735593 L53.3198992,13.7735593 L53.3198992,14.8229114 L54.771035,14.8229114 L54.771035,13.7735593 L56.6610969,13.7735593 L56.6610969,14.1152891 L54.9993671,15.8039942 L57.0471858,15.8039942 L57.0754914,15.7756126 L58.1092134,14.7251099 L58.1118553,14.7251099 L58.1118553,14.7224252 L58.1148745,14.7189734 L58.1118553,14.7159051 Z" id="Fill-21" fill="#303030"></path>
                <polygon id="Fill-23" fill="#303030" points="0 15.7480748 1.64361413 15.7480748 1.64361413 6.31732998 0 4.32678276"></polygon>
                <polygon id="Fill-24" fill="#303030" points="10.7161 0.881985472 10.7161 12.4106673 1.21785957 0.90883293 1.15973866 0.881985472 -3.77408526e-05 0.881985472 -3.77408526e-05 2.20709927 1.87530523 4.47801065 1.87530523 4.47916126 11.1588002 15.7209588 11.2169211 15.7481898 12.3597141 15.7481898 12.3597141 0.881985472"></polygon>
            </g>
        </g>
    </g>
</svg>